<svg width="100" height="67" viewBox="0 0 100 67" fill="none" xmlns="http://www.w3.org/2000/svg">
<path d="M98.4444 8.03537C80.963 2.80132 63.3333 0.073719 47.5556 0C32 0 16.0741 2.65388 1.40743 7.66677L0 8.18281V40.914L1.55558 41.3564C18.7408 46.0744 33.037 49.6866 47.5556 49.9815C63.037 50.2763 78.5185 47.0327 98.4444 41.6512L100 41.2089V8.40396L98.4444 8.03537V8.03537ZM95.7037 38.039C76.8889 43.0519 62.1481 46.0744 47.5556 45.7795C34 45.4846 20.3704 42.0936 4.14817 37.6704V11.2053C14.1482 7.88792 29.3334 4.20197 47.4815 4.20197C62.4445 4.20197 79.037 6.78214 95.7037 11.6476V38.039V38.039Z" fill="#041D98"/>
<path d="M22.5753 26.313H30.3734L31.1904 22.0344H23.318L23.8379 19.3511H33.1214L33.864 15H18.342L15 33.5649H30.8933L31.7102 29.2863H22.0554L22.5753 26.313ZM36.1663 15L32.8243 33.5649H38.3201L41.6621 15H36.1663ZM44.7071 15.8702L43.9644 20.0763H41.9592L41.3651 23.1946H43.296L42.2563 28.8511C41.4393 33.5649 42.182 34 49.4603 33.6374L50.1287 29.7939H49.2374C47.6778 29.7939 47.6036 29.3588 47.8264 28.126L48.7176 23.1946H51.3912L51.9854 20.0763H49.3117L50.0544 15.8702H44.7071V15.8702ZM58.5952 34C61.863 34 65.5021 32.9122 67.0617 29.5038H61.7887C61.2688 30.3015 60.3776 30.6641 59.4864 30.6641C58.0011 30.6641 56.9613 29.5763 57.2584 27.9809H67.7301C68.6956 23.0496 66.2448 19.6412 61.1203 19.6412C56.6642 19.6412 52.728 22.4695 51.9111 26.9656C51.1684 31.5343 54.1391 34 58.5952 34V34ZM60.749 22.9771C62.0115 22.9771 62.977 24.0649 62.7542 25.2977H57.7782C58.0753 23.8473 59.1151 22.9771 60.749 22.9771ZM74.2657 29.7939L75.5282 28.7786L77.6077 33.5649H84.2176L79.9101 25.2977L86 20.0763H79.613L75.3054 24.2099L76.9393 15H71.4435L68.1015 33.5649H73.5973" fill="#041D98"/>
<path d="M9.07529 62.7349H11.7961V61.9261H9.07529V58.9846H12.2373L12.0903 58.1022H8.19287V66.7794H12.3109L12.4579 65.897H9.07529V62.7349ZM15.1787 58.1022H14.2228V66.7794H17.9731L18.1202 65.897H15.1787V58.1022ZM18.1937 58.1022L18.1202 58.9846H20.0321V66.7794H20.9145V58.9846H22.8264L22.6794 58.1022H18.1937ZM25.1796 62.7349H27.8269V61.9261H25.1796V58.9846H28.2681L28.1946 58.1022H24.2236V66.7794H28.4152L28.4887 65.897H25.1796V62.7349ZM35.4746 58.1022H34.3716L31.2095 61.9261V58.1022H30.3271V66.7794H31.2095V63.2497L34.3716 66.7794H35.5481L31.7243 62.5143L35.4746 58.1022ZM45.4754 61.9261H40.9898V58.1022H40.0338V66.7794H40.9898V62.8085H45.4754V66.7794H46.3579V58.1022H45.4754V61.9261ZM52.3878 57.8816C49.8876 57.8816 48.1963 59.7935 48.1963 62.4408C48.1963 65.0881 49.8876 67 52.3878 67C54.888 67 56.5793 65.0881 56.5793 62.4408C56.5793 59.7935 54.888 57.8816 52.3878 57.8816ZM52.3878 66.1911C50.4759 66.1911 49.0787 64.4998 49.0787 62.4408C49.0787 60.3818 50.4759 58.6905 52.3878 58.6905C54.2997 58.6905 55.6969 60.3818 55.6969 62.4408C55.6234 64.4998 54.2997 66.1911 52.3878 66.1911ZM59.2266 58.1022H58.3442V66.7794H62.0945L62.168 65.897H59.2266V58.1022ZM65.5507 58.1022H63.5652V66.7059H65.5507C67.4626 66.7059 69.8158 65.3822 69.8158 62.3673C69.8893 59.4258 67.5361 58.1022 65.5507 58.1022ZM65.5507 65.897H64.4476V58.9111H65.5507C66.9479 58.9111 68.9333 60.0141 68.9333 62.3673C69.0069 64.8675 66.9479 65.897 65.5507 65.897ZM71.6542 58.1022H72.5366V66.7059H71.6542V58.1022ZM80.7726 65.2352L75.7721 58.1022H74.8162V66.7794H75.7721V59.6464L80.7726 66.7794H81.655V58.1022H80.7726V65.2352ZM87.832 58.6905C89.3027 58.6905 90.2587 59.2788 90.994 60.2347L91.6558 59.72C90.994 58.6905 89.8174 57.8816 87.9055 57.8816C85.4788 57.8816 83.5669 59.9406 83.5669 62.4408C83.5669 64.941 85.4788 67 87.9055 67C89.6704 67 90.9205 66.1911 91.5823 65.2352V61.9261H88.5674L88.3467 62.7349H90.6999V64.794C89.9645 65.7499 89.0086 66.1176 87.9055 66.1176C86.0671 66.1176 84.5229 64.3527 84.5229 62.3673C84.5229 60.3818 85.9201 58.6905 87.832 58.6905V58.6905Z" fill="#041D98"/>
</svg>
